<?xml version="1.0" encoding="utf-8"?>
<!-- Generator: Adobe Illustrator 21.1.0, SVG Export Plug-In . SVG Version: 6.00 Build 0)  -->
<svg version="1.1" xmlns="http://www.w3.org/2000/svg" xmlns:xlink="http://www.w3.org/1999/xlink" x="0px" y="0px"
	 viewBox="0 0 86.6 36" style="enable-background:new 0 0 86.6 36;" xml:space="preserve">
<style type="text/css">
	.st0{fill-rule:evenodd;clip-rule:evenodd;fill:#93604C;}
	.st1{fill-rule:evenodd;clip-rule:evenodd;fill:#4F403F;}
	.st2{fill-rule:evenodd;clip-rule:evenodd;fill:#DD8047;}
	.st3{fill-rule:evenodd;clip-rule:evenodd;fill:#E7AB64;}
	.st4{fill:#DD8047;}
</style>
<g id="Layer_1">
</g>
<g id="Layer_2">
	<circle class="st0" cx="43" cy="11.4" r="5.6"/>
</g>
<g id="Layer_3">
	<circle class="st1" cx="43" cy="11.4" r="4.9"/>
</g>
<g id="Layer_4">
	<path class="st0" d="M21.2,14.1c-2.8,0.1-5.3-0.6-7.9-2.6c-0.3-0.2-0.4-0.5-0.3-0.9c0.1-0.3,0.4-0.6,0.7-0.6
		c1.3-0.2,2.5-0.4,3.8-0.6c-4.8-0.8-9-2.6-11.8-7.3c-0.2-0.3-0.1-0.7,0.1-1c0.3-0.3,0.7-0.3,1-0.2C14.6,4.9,29,4.1,37.7,4.1
		c1.9,0,3,2.4,1.8,3.9c0,0,0,0,0,0.1c-0.9,0.9-1.4,2.1-1.4,3.4c0,1.4,0.6,2.8,1.7,3.7c0.2,0.2,0.3,0.4,0.3,0.7c0,0.3-0.1,0.7-0.3,1
		c-1.2,2.1-2.9,4.3-5.5,4.4c-0.3,0-0.5-0.1-0.7-0.4c-0.1-0.2-0.2-0.5-0.1-0.7c-1,0.5-2.1,0.7-3.5,0.5c-0.3,0-0.5-0.2-0.6-0.5
		c-0.1-0.3-0.1-0.6,0.1-0.8c0,0,0.1-0.1,0.1-0.1c-1.3,0.5-2.7,0.5-4.4,0c-0.3-0.1-0.5-0.3-0.6-0.6c-0.1-0.3,0.1-0.6,0.3-0.8
		c0.2-0.1,0.4-0.3,0.5-0.4c-1.9,0.3-3.7,0.2-5.8-0.9c-0.3-0.1-0.5-0.4-0.4-0.8c0-0.3,0.2-0.6,0.5-0.7C20.2,14.6,20.7,14.3,21.2,14.1
		L21.2,14.1z M52.4,20.1c0.1,0.2,0,0.5-0.1,0.7c-0.2,0.2-0.4,0.4-0.7,0.4c-2.6-0.1-4.3-2.3-5.5-4.4c-0.2-0.3-0.3-0.6-0.3-1
		c0-0.3,0.1-0.5,0.3-0.7c1.1-0.9,1.7-2.3,1.7-3.7c0-1.3-0.5-2.5-1.4-3.4c0,0,0,0-0.1-0.1c-1.2-1.5-0.2-3.9,1.8-3.9
		c8.7,0,23.1,0.8,30.8-3.2c0.3-0.2,0.7-0.1,1,0.2c0.3,0.3,0.3,0.7,0.1,1c-2.8,4.7-7,6.6-11.8,7.3c1.3,0.2,2.5,0.4,3.8,0.6
		c0.3,0,0.6,0.3,0.7,0.6c0.1,0.3,0,0.7-0.3,0.9c-2.6,2.1-5.1,2.7-7.9,2.6c0.5,0.2,1.1,0.5,1.6,0.7c0.3,0.1,0.5,0.4,0.5,0.7
		c0,0.3-0.2,0.6-0.4,0.8c-2.1,1.1-3.9,1.3-5.8,0.9c0.2,0.1,0.4,0.3,0.5,0.4c0.2,0.2,0.4,0.5,0.3,0.8c-0.1,0.3-0.3,0.6-0.6,0.6
		c-1.7,0.5-3.1,0.5-4.4,0c0,0,0.1,0.1,0.1,0.1c0.2,0.2,0.2,0.5,0.1,0.8c-0.1,0.3-0.4,0.5-0.6,0.5C54.5,20.8,53.4,20.6,52.4,20.1z"/>
</g>
<g id="Layer_5">
	<path class="st1" d="M19.9,15.5c1-0.4,2-0.9,3.1-1.3c0.8-0.3,1.6-0.7,2.4-1c0.1,0,0.1-0.1,0.1-0.1c0-0.1-0.1-0.1-0.1-0.1
		c-4.2,0.7-7.8,1-11.5-2c0,0,0-0.1,0-0.1c0,0,0-0.1,0.1-0.1c1.7-0.3,3.3-0.5,4.9-0.8c1.3-0.2,2.5-0.4,3.7-0.6c0.1,0,0.1-0.1,0.1-0.1
		c0-0.1,0-0.1-0.1-0.1C16.1,8.8,10,7.9,6.4,1.7c0,0,0-0.1,0-0.1c0,0,0.1,0,0.1,0c7.8,4,22.2,3.2,31.1,3.3c1.3,0,2,1.7,1.2,2.7
		c0,0,0,0,0,0c-1,1-1.6,2.4-1.6,3.9c0,1.7,0.8,3.3,2,4.3c0,0,0,0.1,0,0.1c0,0.2-0.1,0.5-0.2,0.7c-1.2,2.2-2.8,4-4.9,4
		c0,0-0.1,0-0.1,0c0,0,0-0.1,0-0.1c0.3-0.7,0.6-1.4,0.9-2.2c0,0,0-0.1,0-0.1c0,0-0.1,0-0.1,0c-1.3,1.5-2.5,2.2-4.8,1.9
		c0,0-0.1,0-0.1-0.1c0,0,0-0.1,0-0.1c0.3-0.4,0.7-0.9,1.1-1.4c0.3-0.3,0.5-0.7,0.8-1.1c0,0,0-0.1,0-0.1c0,0-0.1,0-0.1,0
		c-2,1.4-3.7,2.1-6.4,1.3c0,0-0.1,0-0.1-0.1c0,0,0-0.1,0-0.1c0.6-0.5,1.2-0.9,1.9-1.4c0.5-0.4,1-0.7,1.5-1.1c0,0,0.1-0.1,0-0.1
		c0,0-0.1-0.1-0.1,0c-2.9,1.2-5.4,1.8-8.6,0.2C19.9,15.6,19.8,15.6,19.9,15.5C19.8,15.5,19.9,15.5,19.9,15.5L19.9,15.5z M66,15.5
		c-1-0.4-2-0.9-3.1-1.3c-0.8-0.3-1.6-0.7-2.4-1c-0.1,0-0.1-0.1-0.1-0.1c0-0.1,0.1-0.1,0.1-0.1c4.2,0.7,7.8,1,11.5-2c0,0,0-0.1,0-0.1
		c0,0,0-0.1-0.1-0.1c-1.7-0.3-3.3-0.5-4.9-0.8c-1.3-0.2-2.5-0.4-3.7-0.6c-0.1,0-0.1-0.1-0.1-0.1c0-0.1,0-0.1,0.1-0.1
		c6.3-0.3,12.5-1.3,16.1-7.5c0,0,0-0.1,0-0.1c0,0-0.1,0-0.1,0c-7.8,4-22.2,3.2-31.1,3.3c-1.3,0-2,1.7-1.2,2.7c0,0,0,0,0,0
		c1,1,1.6,2.4,1.6,3.9c0,1.7-0.8,3.3-2,4.3c0,0,0,0.1,0,0.1c0,0.2,0.1,0.5,0.2,0.7c1.2,2.2,2.8,4,4.9,4c0,0,0.1,0,0.1,0
		c0,0,0-0.1,0-0.1c-0.3-0.7-0.6-1.4-0.9-2.2c0,0,0-0.1,0-0.1c0,0,0.1,0,0.1,0c1.3,1.5,2.5,2.2,4.8,1.9c0,0,0.1,0,0.1-0.1
		c0,0,0-0.1,0-0.1c-0.3-0.4-0.7-0.9-1.1-1.4c-0.3-0.3-0.5-0.7-0.8-1.1c0,0,0-0.1,0-0.1c0,0,0.1,0,0.1,0c2,1.4,3.7,2.1,6.4,1.3
		c0,0,0.1,0,0.1-0.1c0,0,0-0.1,0-0.1c-0.6-0.5-1.2-0.9-1.9-1.4c-0.5-0.4-1-0.7-1.5-1.1c0,0-0.1-0.1,0-0.1c0,0,0.1-0.1,0.1,0
		c2.9,1.2,5.4,1.8,8.6,0.2C66,15.6,66.1,15.6,66,15.5C66.1,15.5,66,15.5,66,15.5z"/>
</g>
<g id="Layer_6">
	<path class="st2" d="M20.8,15.7c2.6,1.1,4.8,0.6,7.6-0.5c0.2-0.1,0.5,0,0.6,0.2c0.1,0.2,0.1,0.5-0.1,0.6c-0.5,0.4-1,0.7-1.5,1.1
		c-0.4,0.3-0.8,0.6-1.3,1c0,0,0,0.1,0,0.1c0,0,0,0.1,0.1,0.1c2.1,0.5,3.6-0.1,5.4-1.4c0.2-0.1,0.4-0.1,0.6,0.1
		c0.2,0.2,0.2,0.4,0,0.6c-0.3,0.4-0.6,0.7-0.8,1.1c-0.2,0.3-0.4,0.6-0.7,0.8c0,0,0,0.1,0,0.1s0.1,0.1,0.1,0.1
		c1.7,0.1,2.7-0.5,3.9-1.8c0.2-0.2,0.4-0.2,0.6-0.1c0.2,0.1,0.3,0.4,0.2,0.6c-0.2,0.6-0.5,1.1-0.7,1.7c0,0,0,0.1,0,0.1
		c0,0,0.1,0,0.1,0c1.6-0.3,2.8-1.8,3.7-3.2c0,0,0-0.1,0-0.1c0,0-0.1,0-0.1,0c-0.2,0.1-0.4,0.2-0.6,0.3c0,0-0.1,0-0.1,0
		c0,0,0-0.1,0-0.1c0.1-0.3,0.3-0.7,0.4-1c0.1-0.1,0-0.3-0.1-0.4c0,0,0,0,0,0c-0.1-0.1-0.3-0.1-0.4,0.1c-0.8,0.8-1.4,1.3-2.5,1.2
		c0,0-0.1,0-0.1-0.1c0,0,0-0.1,0-0.1c0.1-0.2,0.3-0.3,0.4-0.5c0.2-0.2,0.4-0.5,0.5-0.7c0.1-0.1,0.1-0.3,0-0.4
		c-0.1-0.1-0.3-0.1-0.4,0c-1.2,0.8-2.1,1.2-3.5,1c0,0-0.1,0-0.1-0.1c0,0,0-0.1,0-0.1c0.3-0.2,0.5-0.4,0.8-0.6c0.3-0.2,0.6-0.5,1-0.7
		c0.1-0.1,0.2-0.3,0.1-0.4c-0.1-0.1-0.2-0.2-0.4-0.1c0,0,0,0,0,0c-1.8,0.7-3.2,1.1-4.9,0.4c0,0-0.1-0.1-0.1-0.1c0,0,0-0.1,0.1-0.1
		c0.5-0.2,1-0.4,1.4-0.6c0.5-0.2,1-0.4,1.6-0.7c0.1-0.1,0.2-0.2,0.2-0.4c0,0,0,0,0,0c0-0.1-0.2-0.2-0.3-0.2
		c-2.6,0.4-4.7,0.6-6.8-0.9c0,0-0.1-0.1,0-0.1c0,0,0-0.1,0.1-0.1c0.9-0.1,1.7-0.3,2.6-0.4c0.8-0.1,1.6-0.3,2.4-0.4
		c0.2,0,0.3-0.2,0.3-0.3c0-0.2-0.1-0.3-0.3-0.3c-3-0.2-5.8-0.5-8-2.2c0,0-0.1-0.1,0-0.1c0,0,0.1-0.1,0.1-0.1c3.3,0,6.5,0,9.8,0
		c2.4,0.1,4.7,0,6.7,0c0.3,0,0.5-0.1,0.6-0.3c0.2-0.2,0.2-0.4,0.2-0.7c-0.1-0.6-0.5-1.1-1.2-1.1c-8.6,0-22,0.7-30.2-2.8
		c0,0-0.1,0-0.1,0c0,0,0,0.1,0,0.1c3.6,5,9.1,5.9,15.1,6.2c0.2,0,0.4,0.2,0.4,0.4c0,0.2-0.2,0.5-0.4,0.5c-1.2,0.2-2.5,0.4-3.7,0.6
		c-1.3,0.2-2.7,0.4-4,0.6c0,0-0.1,0-0.1,0.1c0,0,0,0.1,0,0.1c3.3,2.3,6.6,2.1,10.5,1.4c0.2,0,0.5,0.1,0.5,0.3c0.1,0.2,0,0.5-0.3,0.6
		c-0.8,0.3-1.6,0.7-2.4,1c-0.8,0.3-1.5,0.7-2.3,1C20.7,15.5,20.7,15.5,20.8,15.7C20.7,15.6,20.7,15.7,20.8,15.7L20.8,15.7z
		 M50.2,7.3l0.6,0c0.8,0,1.6,0,2.4,0c3.7,0,7.4,0,11.1,0c0,0,0.1,0,0.1,0.1c0,0,0,0.1,0,0.1c-2.2,1.6-5.1,2-8,2.2
		c-0.2,0-0.3,0.1-0.3,0.3c0,0.2,0.1,0.3,0.3,0.3c0.8,0.1,1.6,0.3,2.4,0.4c0.9,0.1,1.7,0.3,2.6,0.4c0,0,0.1,0,0.1,0.1
		c0,0,0,0.1,0,0.1c-2.1,1.5-4.3,1.3-6.8,0.9c-0.2,0-0.3,0.1-0.3,0.2c0,0,0,0,0,0c0,0.2,0,0.3,0.2,0.4c0.5,0.2,1,0.4,1.6,0.7
		c0.5,0.2,1,0.4,1.4,0.6c0,0,0.1,0.1,0.1,0.1c0,0,0,0.1-0.1,0.1c-1.7,0.7-3.1,0.4-4.9-0.4c0,0,0,0,0,0c-0.1-0.1-0.3,0-0.4,0.1
		c-0.1,0.1,0,0.3,0.1,0.4c0.3,0.2,0.6,0.5,1,0.7c0.3,0.2,0.5,0.4,0.8,0.6c0,0,0,0.1,0,0.1c0,0,0,0.1-0.1,0.1c-1.3,0.3-2.3-0.1-3.5-1
		c-0.1-0.1-0.3-0.1-0.4,0c-0.1,0.1-0.1,0.3,0,0.4c0.2,0.2,0.4,0.5,0.5,0.7c0.1,0.2,0.3,0.3,0.4,0.5c0,0,0,0.1,0,0.1
		c0,0-0.1,0.1-0.1,0.1c-1,0-1.7-0.4-2.5-1.2c-0.1-0.1-0.3-0.1-0.4,0c-0.1,0.1-0.2,0.2-0.1,0.4c0.1,0.3,0.3,0.7,0.4,1
		c0,0,0,0.1,0,0.1c0,0-0.1,0-0.1,0c-0.2-0.1-0.4-0.1-0.6-0.3c0,0-0.1,0-0.1,0c0,0,0,0.1,0,0.1c0.9,1.4,2,2.9,3.7,3.2
		c0,0,0.1,0,0.1,0c0,0,0-0.1,0-0.1c-0.2-0.6-0.5-1.1-0.7-1.7c-0.1-0.2,0-0.5,0.2-0.6c0.2-0.1,0.4-0.1,0.6,0.1
		c1.2,1.3,2.2,1.9,3.9,1.8c0,0,0.1,0,0.1-0.1c0,0,0-0.1,0-0.1c-0.2-0.3-0.4-0.6-0.7-0.8c-0.3-0.4-0.6-0.7-0.8-1.1
		c-0.1-0.2-0.1-0.4,0-0.6c0.2-0.2,0.4-0.2,0.6-0.1c1.8,1.3,3.3,1.9,5.4,1.4c0,0,0.1,0,0.1-0.1c0,0,0-0.1,0-0.1
		c-0.4-0.3-0.8-0.7-1.3-1c-0.5-0.4-1-0.7-1.5-1.1c-0.2-0.1-0.2-0.4-0.1-0.6c0.1-0.2,0.4-0.3,0.6-0.2c2.7,1.1,4.9,1.6,7.6,0.5
		c0,0,0.1-0.1,0.1-0.1c0,0,0-0.1-0.1-0.1c-0.8-0.3-1.5-0.7-2.3-1c-0.8-0.3-1.6-0.7-2.4-1c-0.2-0.1-0.3-0.3-0.3-0.6
		c0.1-0.2,0.3-0.4,0.5-0.3c4,0.7,7.2,0.9,10.5-1.4c0,0,0.1-0.1,0-0.1c0,0,0-0.1-0.1-0.1c-1.3-0.2-2.7-0.4-4-0.6
		c-1.2-0.2-2.5-0.4-3.7-0.6c-0.2,0-0.4-0.2-0.4-0.5c0-0.2,0.2-0.4,0.4-0.4c6-0.3,11.5-1.2,15.1-6.2c0,0,0-0.1,0-0.1
		c0,0-0.1-0.1-0.1,0c-8.2,3.5-21.6,2.8-30.2,2.8c-0.6,0-1.1,0.5-1.2,1.1c0,0.2,0,0.5,0.2,0.7c0.2,0.2,0.4,0.3,0.6,0.3
		C48.6,7.3,49.4,7.3,50.2,7.3L50.2,7.3z"/>
</g>
<g id="Layer_7">
	<path class="st3" d="M22.4,8.4C22,8.2,21.6,8,21.3,7.8c-0.2-0.1-0.2-0.3-0.2-0.5c0.1-0.2,0.2-0.3,0.4-0.3c3.3,0,6.5,0,9.8,0
		c2.2,0.1,4.5,0,6.7,0c0.1,0,0.3-0.1,0.4-0.2c0.1-0.1,0.1-0.2,0.1-0.4c-0.1-0.4-0.4-0.8-0.8-0.8c-5,0-9.9,0.1-14.8-0.1
		C18.2,5.3,12.7,4.8,8.2,3.1C11.7,7.4,17,8.2,22.4,8.4L22.4,8.4z M63.5,8.4c5.4-0.3,10.6-1,14.2-5.3c-4.5,1.7-9.9,2.2-14.6,2.4
		c-5,0.2-9.9,0.1-14.8,0.1c-0.4,0-0.8,0.4-0.8,0.8c0,0.1,0,0.3,0.1,0.4c0.1,0.1,0.2,0.2,0.4,0.2c0.8,0,1.6,0,2.4,0l0.4,0v0l0.3,0
		c0.8,0,1.6,0,2.4,0c3.7,0,7.4,0,11.1,0c0.2,0,0.4,0.1,0.4,0.3c0.1,0.2,0,0.4-0.2,0.5C64.3,8,63.9,8.2,63.5,8.4z"/>
</g>
<g id="Layer_8">
	<path class="st2" d="M43.3,7.7l0,0.4c0,0.1,0.1,0.2,0.2,0.2c0,0,0,0,0.1,0c0.1,0,0.2,0,0.2-0.1l0.1-0.3c0-0.1,0.1-0.1,0.2-0.1
		c0.1,0,0.2,0.1,0.3,0.1c0.1,0,0.1,0.1,0.1,0.2l-0.1,0.3c0,0.1,0,0.2,0.1,0.2c0,0,0,0,0,0c0.1,0,0.2,0,0.2,0l0.2-0.3
		c0.1-0.1,0.2-0.1,0.2,0c0.1,0.1,0.2,0.1,0.2,0.2c0.1,0.1,0.1,0.2,0,0.2l-0.2,0.3c0,0.1,0,0.2,0,0.2c0,0,0,0,0,0
		c0.1,0.1,0.2,0.1,0.2,0l0.3-0.2c0.1-0.1,0.2,0,0.2,0c0.1,0.1,0.1,0.2,0.2,0.2c0.1,0.1,0,0.2,0,0.2l-0.3,0.2c-0.1,0.1-0.1,0.1,0,0.2
		c0,0,0,0,0,0c0,0.1,0.1,0.1,0.2,0.1l0.3-0.1c0.1,0,0.2,0,0.2,0.1c0,0.1,0.1,0.2,0.1,0.3c0,0.1,0,0.2-0.1,0.2l-0.3,0.1
		c-0.1,0-0.1,0.1-0.1,0.2c0,0,0,0,0,0.1c0,0.1,0.1,0.1,0.2,0.2l0.4,0c0.1,0,0.2,0.1,0.2,0.2c0,0,0,0.1,0,0.1c0,0,0,0.1,0,0.1
		c0,0.1-0.1,0.2-0.2,0.2l-0.4,0c-0.1,0-0.2,0.1-0.2,0.2c0,0,0,0,0,0.1c0,0.1,0,0.2,0.1,0.2l0.3,0.1c0.1,0,0.1,0.1,0.1,0.2
		c0,0.1-0.1,0.2-0.1,0.3c0,0.1-0.1,0.1-0.2,0.1l-0.3-0.1c-0.1,0-0.2,0-0.2,0.1c0,0,0,0,0,0c0,0.1,0,0.2,0,0.2l0.3,0.2
		c0.1,0.1,0.1,0.2,0,0.2c-0.1,0.1-0.1,0.2-0.2,0.2c-0.1,0.1-0.2,0.1-0.2,0l-0.3-0.2c-0.1,0-0.2,0-0.2,0c0,0,0,0,0,0
		c-0.1,0.1-0.1,0.2,0,0.2l0.2,0.3c0.1,0.1,0,0.2,0,0.2c-0.1,0.1-0.2,0.1-0.2,0.2c-0.1,0.1-0.2,0-0.2,0l-0.2-0.3
		c-0.1-0.1-0.1-0.1-0.2,0c0,0,0,0,0,0c-0.1,0-0.1,0.1-0.1,0.2l0.1,0.3c0,0.1,0,0.2-0.1,0.2c-0.1,0-0.2,0.1-0.3,0.1
		c-0.1,0-0.2,0-0.2-0.1l-0.1-0.3c0-0.1-0.1-0.1-0.2-0.1c0,0,0,0-0.1,0c-0.1,0-0.1,0.1-0.2,0.2l0,0.4c0,0.1-0.1,0.2-0.2,0.2
		c0,0-0.1,0-0.1,0v-3c0.5,0,0.9-0.4,0.9-0.9c0-0.5-0.4-0.9-0.9-0.9v-3c0,0,0.1,0,0.1,0C43.2,7.5,43.3,7.6,43.3,7.7z M43,15.4
		c0,0-0.1,0-0.1,0c-0.1,0-0.2-0.1-0.2-0.2l0-0.4c0-0.1-0.1-0.2-0.2-0.2c0,0,0,0-0.1,0c-0.1,0-0.2,0-0.2,0.1l-0.1,0.3
		c0,0.1-0.1,0.1-0.2,0.1c-0.1,0-0.2-0.1-0.3-0.1c-0.1,0-0.1-0.1-0.1-0.2l0.1-0.3c0-0.1,0-0.2-0.1-0.2c0,0,0,0,0,0
		c-0.1,0-0.2,0-0.2,0L41,14.6c-0.1,0.1-0.2,0.1-0.2,0c-0.1-0.1-0.2-0.1-0.2-0.2c-0.1-0.1-0.1-0.2,0-0.2l0.2-0.3c0-0.1,0-0.2,0-0.2
		c0,0,0,0,0,0c-0.1-0.1-0.2-0.1-0.2,0l-0.3,0.2c-0.1,0.1-0.2,0-0.2,0c-0.1-0.1-0.1-0.2-0.2-0.2c-0.1-0.1,0-0.2,0-0.2l0.3-0.2
		c0.1-0.1,0.1-0.1,0-0.2c0,0,0,0,0,0c0-0.1-0.1-0.1-0.2-0.1l-0.3,0.1c-0.1,0-0.2,0-0.2-0.1c0-0.1-0.1-0.2-0.1-0.3
		c0-0.1,0-0.2,0.1-0.2l0.3-0.1c0.1,0,0.1-0.1,0.1-0.2c0,0,0,0,0-0.1c0-0.1-0.1-0.1-0.2-0.2l-0.4,0c-0.1,0-0.2-0.1-0.2-0.2
		c0,0,0-0.1,0-0.1c0,0,0-0.1,0-0.1c0-0.1,0.1-0.2,0.2-0.2l0.4,0c0.1,0,0.2-0.1,0.2-0.2c0,0,0,0,0-0.1c0-0.1,0-0.2-0.1-0.2l-0.3-0.1
		c-0.1,0-0.1-0.1-0.1-0.2c0-0.1,0.1-0.2,0.1-0.3c0-0.1,0.1-0.1,0.2-0.1l0.3,0.1c0.1,0,0.2,0,0.2-0.1c0,0,0,0,0,0c0-0.1,0-0.2,0-0.2
		l-0.3-0.2c-0.1-0.1-0.1-0.2,0-0.2c0.1-0.1,0.1-0.2,0.2-0.2c0.1-0.1,0.2-0.1,0.2,0l0.3,0.2c0.1,0,0.2,0,0.2,0c0,0,0,0,0,0
		c0.1-0.1,0.1-0.2,0-0.2l-0.2-0.3c-0.1-0.1,0-0.2,0-0.2c0.1-0.1,0.2-0.1,0.2-0.2c0.1-0.1,0.2,0,0.2,0l0.2,0.3c0.1,0.1,0.1,0.1,0.2,0
		c0,0,0,0,0,0c0.1,0,0.1-0.1,0.1-0.2l-0.1-0.3c0-0.1,0-0.2,0.1-0.2c0.1,0,0.2-0.1,0.3-0.1c0.1,0,0.2,0,0.2,0.1l0.1,0.3
		c0,0.1,0.1,0.1,0.2,0.1c0,0,0,0,0.1,0c0.1,0,0.1-0.1,0.2-0.2l0-0.4c0-0.1,0.1-0.2,0.2-0.2c0,0,0.1,0,0.1,0v3
		c-0.5,0-0.9,0.4-0.9,0.9c0,0.5,0.4,0.9,0.9,0.9V15.4z"/>
</g>
<g id="Layer_9">
	<path class="st0" d="M83,33.9v-1.5c0.3,0,0.6,0,0.9-0.1c0.1,0,0.3-0.1,0.4-0.1c0.1-0.1,0.2-0.1,0.2-0.1c0,0,0.1-0.1,0.1-0.2
		c0.1-0.2,0.2-0.3,0.3-0.5l0.1-0.2h0.9l-0.2,2.7H83L83,33.9z M83,31c0,0.1,0.1,0.2,0.1,0.2c0.1,0.1,0.1,0.3,0.1,0.4l0,0.3h1v-3.3
		c0,0.1,0.1,0.1,0.1,0.2l0.1,0.2h0.9v-2.3H83v1.4c0.1,0,0.2,0,0.4,0c0.1,0,0.3,0,0.4,0.1c0.1,0,0.2,0,0.2,0.1
		c0.1,0.1,0.1,0.2,0.2,0.3h-0.9l0,0.3c0,0.2-0.1,0.4-0.2,0.6V31z M83,26.7v1.4c-0.2,0-0.3,0-0.5,0h-0.7v1.6h0.4c0.2,0,0.5,0,0.7-0.2
		c0,0,0,0,0.1-0.1V31c0,0,0-0.1-0.1-0.1c-0.2-0.2-0.5-0.2-0.7-0.2h-0.4v1.1c0,0.1,0,0.4,0.1,0.5c0.1,0.1,0.6,0.1,0.8,0.1
		c0.1,0,0.2,0,0.3,0v1.5h-4.1v-1c0.1,0,0.3,0,0.3-0.1c0,0,0,0,0.1,0c0-0.1,0-0.1,0-0.2V31c-0.1-0.2-0.3-0.3-0.4-0.4V30
		c0.1-0.1,0.3-0.3,0.4-0.4l0-1.5c0-0.1,0-0.1,0-0.2c-0.1-0.1-0.3-0.1-0.4-0.1l0,0v-1.1H83z M78.9,26.7v1.1l-0.1,0
		c-0.1,0-0.3,0-0.3,0.1c0,0,0,0.1,0,0.2v2.1l0.4-0.1l0,0v0.6l-0.1-0.1l-0.4-0.3v2.7l0.1,0c0.1,0,0.2,0,0.3,0v1h-0.4V36h-0.9
		l-0.1-0.2c0-0.1-0.1-0.3-0.1-0.4c-0.1-0.1-0.1-0.2-0.2-0.3c-0.1-0.1-0.4-0.4-0.5-0.4l-0.3,0v-5.1l-1.6,4.2h-1.4l-0.1-0.2
		c0-0.2-0.1-0.4-0.2-0.6l-0.3-0.7l-1.1-2.8v2.2c0,0.2,0,0.9,0.2,1c0.1,0.1,0.3,0.1,0.4,0.1c0.1,0,0.2,0.1,0.4,0.1l0.2,0.1v0.9h-6.8
		v-1l0.3,0c0.1,0,0.5,0,0.7-0.1l-0.3-1h-0.9v-1.5h0.5l-0.4-1.2l0,0.1v-2.7h1l1.7,3.7c0.3,0.7,0.6,1.4,1,2.1c0.1,0.1,0.1,0.2,0.3,0.3
		c0.1-0.1,0.2-0.1,0.2-0.3c0.1-0.2,0.1-0.5,0.1-0.8v-3.2c0-0.2,0-0.4-0.2-0.5c-0.1-0.1-0.2-0.1-0.3-0.1c-0.1,0-0.2,0-0.3,0l-0.3,0
		v-1h3.9l1.6,3.8l1.4-3.8H78.9z M65.7,26.6v2.7l-0.5,1.1h0.5v1.5h-1.1c0,0.1-0.1,0.1-0.1,0.1c-0.1,0.3-0.2,0.5-0.3,0.8c0,0,0,0,0,0
		c0,0,0,0,0,0l0.1,0l0,0c0,0,0,0,0.1,0.1c0,0,0.1,0,0.1,0l0.3,0v1h-4.3l-4.1-4.5v2.2c0,0.2,0,0.9,0.2,1c0.1,0.1,0.2,0.1,0.3,0.1
		c0.1,0,0.2,0.1,0.4,0.1l0.2,0.1v0.9h-3.8v-1l0.3,0c0.2,0,0.4-0.1,0.5-0.2c0.2-0.1,0.2-0.9,0.2-1v-3.1c0-0.2-0.1-0.4-0.2-0.6
		c-0.1-0.1-0.2-0.1-0.3-0.2c-0.1,0.1-0.2,0.1-0.3,0.2c-0.3,0.3-0.7,0.9-1,1.3c-0.3,0.4-0.5,0.8-0.8,1.1c-0.2,0.2-0.4,0.5-0.5,0.8
		c0,0.1,0,0.3,0,0.4V36h-0.9l-0.1-0.2c-0.1-0.3-0.3-0.5-0.5-0.7c-0.2-0.2-0.4-0.4-0.7-0.4l-0.3,0v-3.2c0-0.1,0-0.3,0-0.3
		c0-0.1-0.1-0.1-0.1-0.2l-0.2-0.4c-0.5-0.7-1-1.5-1.5-2.2c-0.1-0.2-0.3-0.3-0.4-0.4c-0.1,0.2-0.2,0.8-0.2,1v5h-1.5l-4.1-4.5v2.2
		c0,0.2,0,0.9,0.2,1c0.1,0.1,0.2,0.1,0.3,0.1c0.1,0,0.2,0.1,0.4,0.1l0.2,0.1v0.9h-6.6v-1l0.3,0c0.1,0,0.5,0,0.7-0.1l-0.3-1h-0.9
		v-1.5h0.5l-0.4-1.2l0,0.1v-2.7h1l1.7,3.7c0.3,0.7,0.6,1.4,1,2.1c0.1,0.1,0.2,0.2,0.3,0.3c0,0,0.1,0,0.1-0.1c0.2-0.1,0.2-0.9,0.2-1
		v-3.1c0-0.2-0.1-0.4-0.2-0.6c-0.2-0.1-0.4-0.3-0.6-0.3l-0.3,0v-1h3.2l3.4,3.9V29c0-0.2,0-0.9-0.2-1c-0.1-0.1-0.2-0.1-0.4-0.1
		c-0.1,0-0.2-0.1-0.4-0.1l-0.2-0.1v-0.9h6.5v1l-0.3,0c-0.1,0-0.4,0-0.6,0c0.1,0.1,0.2,0.3,0.2,0.4c0.2,0.3,0.3,0.5,0.5,0.8
		c0.2,0.2,0.4,0.5,0.5,0.8c0.3-0.5,0.7-1,1-1.4c0.1-0.1,0.2-0.3,0.3-0.5c-0.1,0-0.2,0-0.3,0l-0.3,0v-1H57l3.4,3.9V29
		c0-0.2,0-0.9-0.2-1c-0.1-0.1-0.2-0.1-0.4-0.1c-0.1,0-0.2-0.1-0.4-0.1l-0.2-0.1v-0.9H63v1l-0.3,0c-0.2,0-0.4,0.1-0.5,0.2
		C62,28,62,28.8,62,29v3.9c0,0,0.1,0,0.1,0c0.2-0.1,0.4-0.3,0.5-0.5l0.4-0.8c-0.1-0.1-0.3-0.3-0.5-0.4l-0.4-0.4l0.5-0.2
		c0.2-0.1,0.4-0.2,0.6-0.3c0.1-0.1,0.3-0.2,0.5-0.2l0.1-0.3l1.4-3.1H65.7z M32.2,27.1c0.6,0.3,1,0.8,1,1.6c0,0.9-0.4,1.5-1,1.9V27.1
		L32.2,27.1z M35.6,26.6h-0.5l-1.4,3.1L33.6,30c-0.1,0.1-0.3,0.2-0.5,0.2c-0.2,0.1-0.4,0.2-0.6,0.3l-0.3,0.1v0.2l0.2,0.2
		c0.2,0.1,0.3,0.3,0.5,0.4l-0.4,0.8c-0.1,0.2-0.2,0.3-0.3,0.4v1.2h2.6v-1l-0.3,0c0,0-0.1,0-0.1,0c0,0,0,0-0.1-0.1l0,0l-0.1,0
		c0,0,0,0,0,0c0,0,0,0,0,0c0.1-0.2,0.2-0.5,0.3-0.8c0,0,0-0.1,0.1-0.1h1.1v-1.5h-0.5l0.5-1.1V26.6z M30,26.7h0.2
		c0.7,0,1.5,0.1,2.1,0.4v3.5c-0.4,0.2-0.8,0.4-1.2,0.5c-0.3,0.1-0.7,0.1-1,0.1v-1.2c0.1,0,0.3-0.1,0.3-0.1c0.3-0.2,0.3-0.5,0.3-0.8
		c0-0.2,0-0.6-0.2-0.8c-0.1-0.1-0.2-0.1-0.4-0.1V26.7L30,26.7z M32.2,30.6L32,30.7l0.2,0.2V30.6L32.2,30.6z M32.2,32.7v1.2h-1v-1
		l0.3,0c0.2,0,0.4,0,0.6-0.1C32.1,32.8,32.2,32.7,32.2,32.7z M26.4,26.7H30V28c-0.2,0-0.4,0-0.6,0h-0.1v1.9c0.2,0,0.4,0,0.6-0.1v1.2
		c-0.1,0-0.3,0-0.4,0h-0.3V36h-0.9l-0.1-0.2c-0.1-0.3-0.3-0.5-0.5-0.7c-0.2-0.2-0.4-0.4-0.7-0.4l-0.3,0V31c-0.1-0.2-0.3-0.3-0.5-0.4
		V30l0,0c0.1-0.1,0.3-0.3,0.4-0.4V28c0-0.1,0-0.1-0.1-0.2c-0.1,0-0.3-0.1-0.4-0.1l0,0V26.7z M12.4,26.5L12.4,26.5
		c0.6,0,1.1,0.1,1.6,0.2c0.7,0.2,1.2,0.6,1.7,1.1c0.5,0.5,0.8,1.1,0.9,1.7c0.2,0.2,0.3,0.3,0.5,0.4l0.1,0.1v-1.6
		c0-0.2,0-0.4-0.2-0.5c-0.1-0.1-0.2-0.1-0.3-0.1c-0.1,0-0.2,0-0.3,0l-0.3,0v-1h3.9l1.6,3.8l1.4-3.8h3.3v1.1l-0.1,0
		c-0.1,0-0.3,0-0.3,0.1c0,0,0,0.1,0,0.2v2.1l0.5-0.1v0.6l-0.1,0l-0.4-0.3V36H25l-0.1-0.2c0-0.1-0.1-0.3-0.1-0.4
		c-0.1-0.1-0.1-0.2-0.2-0.3c-0.1-0.1-0.4-0.4-0.5-0.4l-0.3,0v-5.1l-1.6,4.2h-1.4l-0.1-0.2c0-0.2-0.1-0.4-0.2-0.6l-0.3-0.7L19,29.5
		v2.2c0,0.2,0,0.9,0.2,1c0.1,0.1,0.3,0.1,0.4,0.1c0.1,0,0.2,0.1,0.4,0.1l0.2,0.1v0.9h-4.1V33l0.2-0.1c0.1,0,0.3-0.1,0.4-0.1
		c0.2,0,0.4-0.1,0.5-0.4c0.1-0.2,0.1-0.5,0.1-0.8v-1.2l-0.2,0.1c-0.1,0.1-0.3,0.3-0.4,0.4c-0.1,0.8-0.5,1.5-1.1,2
		c-0.4,0.4-0.9,0.6-1.4,0.8c-0.5,0.2-1.1,0.3-1.7,0.3l-0.1,0v-1.1l0.1,0c0.2,0,0.4-0.1,0.6-0.2c0.5-0.3,0.7-0.9,0.8-1.4
		c0.1-0.3,0.1-0.6,0.1-1l-1.5,1.4l-0.1-0.1v-3.1l0.1-0.1l1.5,1.6c0-0.3,0-0.6-0.1-1c-0.1-0.5-0.3-1.1-0.7-1.4
		c-0.2-0.1-0.4-0.2-0.7-0.2l-0.1,0V26.5z M8.3,29.2c0.1-0.1,0.1-0.3,0.2-0.4c0.5-1,1.2-1.6,2.3-2c0.5-0.2,1.1-0.3,1.6-0.3v1.1
		c-0.5,0-0.9,0.2-1.1,0.6c-0.4,0.6-0.4,1.4-0.4,2.1c0,0.6,0.1,1.4,0.4,2c0.1,0.2,0.3,0.4,0.5,0.5c0.2,0.1,0.5,0.2,0.7,0.2V34
		c-0.6,0-1.1-0.1-1.6-0.2c-0.9-0.3-1.7-0.9-2.2-1.7l0,0c-0.5,0.9-1.2,1.5-2.2,1.8C6.2,33.9,6.1,34,6,34v-1.4c0.2,0,0.4-0.1,0.6-0.2
		c0.4-0.2,0.7-0.5,0.9-0.9l0.2-0.2l0.6,0.3c-0.1-0.2-0.1-0.4-0.2-0.6c-0.2-0.2-0.3-0.3-0.5-0.5l-0.5-0.4L7.8,30
		c0.1-0.1,0.2-0.2,0.3-0.3H7.3l-0.1-0.2C7,28.9,6.7,28.1,6,27.8v-1.2c0.4,0.1,0.7,0.2,1.1,0.3l0.2-0.2h0.9L8.3,29.2L8.3,29.2z
		 M12.4,28.7l-1.6,1.6l1.6,1.5V28.7z M6,34c-0.3,0.1-0.6,0.1-0.9,0.1c-1.1,0-2.1-0.3-2.9-1c-0.6-0.5-1-1.2-1.2-2
		c-0.2-0.2-0.3-0.4-0.5-0.5L0,30.1L0.6,30c0.1-0.1,0.3-0.3,0.5-0.5c0.2-0.8,0.6-1.4,1.2-1.9c0.9-0.8,1.9-1.1,3-1.1
		c0.3,0,0.5,0,0.8,0.1v1.2c-0.2-0.1-0.5-0.2-0.7-0.2c-1.2,0-1.5,0.9-1.6,1.9c0.1,0.1,0.1,0.2,0.2,0.2c0,0,0.1,0.2,0.2,0.2l1.2,0.2
		l-1.1,0.4C4,30.7,3.8,30.9,3.7,31c0,0.1,0.1,0.3,0.1,0.4c0.1,0.2,0.2,0.5,0.4,0.7c0.3,0.4,0.8,0.6,1.3,0.6c0.2,0,0.3,0,0.5,0V34z"
		/>
</g>
<g id="Layer_10">
	<path class="st4" d="M65.6,31.5v-0.8h0.9l-0.9-2.4l-0.1,0.2V27h0.8l1.6,3.5c0.4,0.9,0.7,1.6,1,2.1c0.1,0.2,0.3,0.4,0.6,0.5
		c0.3-0.1,0.5-0.3,0.5-0.6c0-0.2,0.1-0.5,0.1-0.9v-3.2c0-0.4-0.1-0.7-0.3-0.8c-0.1-0.1-0.3-0.2-0.4-0.2c-0.1,0-0.2,0-0.3-0.1V27h3.3
		l1.8,4.3l1.7-4.3h2.7h0.6H85v1.7h-0.4c-0.1-0.3-0.2-0.5-0.4-0.7c-0.1-0.1-0.2-0.2-0.4-0.2c-0.1,0-0.3,0-0.4-0.1c-0.1,0-0.4,0-0.9,0
		h-1.1V30h0.7c0.4,0,0.7-0.1,0.9-0.3c0.2-0.2,0.3-0.5,0.4-0.8h0.4v2.7h-0.4c0-0.1-0.1-0.3-0.2-0.5c-0.1-0.2-0.2-0.3-0.2-0.4
		c-0.2-0.2-0.5-0.3-0.9-0.3h-0.7v1.5c0,0.4,0.1,0.6,0.2,0.7c0.1,0.1,0.5,0.1,1,0.1c0.6,0,1,0,1.3-0.1c0.1,0,0.3-0.1,0.5-0.1
		c0,0,0.1-0.1,0.2-0.1c0.1,0,0.2-0.1,0.2-0.3c0.1-0.1,0.2-0.3,0.3-0.6h0.4l-0.1,2h-6.8v-0.4c0.4,0,0.6-0.1,0.7-0.1
		c0.1,0,0.2-0.1,0.3-0.2c0,0,0-0.1,0.1-0.3v-1.8c-0.2-0.2-0.4-0.4-0.6-0.6c0,0,0.3-0.2,0.6-0.6V28c0-0.1,0-0.2-0.1-0.3
		c-0.1-0.1-0.3-0.2-0.7-0.3l-0.1,0c-0.3,0-0.5,0.1-0.6,0.3c0,0.1-0.1,0.2-0.1,0.3v7.7h-0.4c0-0.1-0.1-0.3-0.1-0.4
		c-0.1-0.2-0.2-0.3-0.3-0.4c-0.3-0.3-0.5-0.5-0.7-0.5v-6.5l-2.2,5.7h-1c0-0.1-0.1-0.3-0.2-0.6L73,32.2l-1.7-4.4v3.9
		c0,0.7,0.1,1.1,0.4,1.3c0.1,0.1,0.2,0.1,0.5,0.2c0.1,0,0.2,0.1,0.4,0.1v0.4h-2.3H69h-2.7v-0.4c0.7,0,1-0.1,1-0.3c0,0,0-0.1-0.1-0.2
		l-0.4-1.3H65.6z M65.6,27v1.6l-0.9,2.2h0.9v0.8h-1.3c0,0.1-0.1,0.2-0.2,0.3c-0.1,0.2-0.2,0.5-0.3,0.8c0,0.1,0,0.1,0,0.2
		c0,0.1,0.1,0.2,0.3,0.3c0,0,0,0,0.1,0.1c0,0,0.1,0,0.3,0.1v0.4h-2.9h-0.1h-0.9l-4.5-5v3.1c0,0.7,0.1,1.1,0.4,1.3
		c0.1,0.1,0.2,0.1,0.4,0.2c0.1,0,0.2,0.1,0.4,0.1v0.4h-3.1v-0.4c0.2,0,0.5-0.1,0.7-0.2c0.2-0.1,0.3-0.6,0.3-1.3v-3.1
		c0-0.3-0.1-0.6-0.3-0.8c-0.2-0.1-0.3-0.2-0.5-0.3c-0.2,0.1-0.4,0.2-0.6,0.4c-0.2,0.2-0.5,0.6-1,1.3c-0.2,0.2-0.4,0.6-0.8,1.1
		c-0.2,0.2-0.4,0.5-0.6,0.8c0,0.1-0.1,0.3-0.1,0.5v4H51c-0.1-0.3-0.3-0.5-0.5-0.8c-0.3-0.3-0.6-0.5-0.9-0.5v-2.9c0-0.2,0-0.4,0-0.5
		c0-0.1-0.1-0.1-0.1-0.2l-0.2-0.4c-0.5-0.8-1-1.5-1.5-2.2c-0.2-0.3-0.4-0.5-0.7-0.7c0,0-0.1,0-0.1,0.1c-0.2,0.2-0.4,0.6-0.4,1.3v4.6
		h-1l-4.5-5v3.1c0,0.7,0.1,1.1,0.4,1.3c0.1,0.1,0.2,0.1,0.4,0.2c0.1,0,0.2,0.1,0.4,0.1v0.4H40h-1h-2.9v-0.4c0.7,0,1-0.1,1-0.3
		c0,0,0-0.1-0.1-0.2l-0.4-1.3h-1.2v-0.8h0.9l-0.9-2.4l-0.1,0.2V27h0.8l1.6,3.5c0.4,0.9,0.7,1.6,1,2.1c0.1,0.3,0.3,0.4,0.6,0.5
		c0.1,0,0.2-0.1,0.3-0.1c0.2-0.1,0.3-0.6,0.3-1.3v-3.1c0-0.3-0.1-0.6-0.3-0.8c-0.3-0.2-0.5-0.3-0.7-0.4V27h2.7l3.9,4.4V29
		c0-0.7-0.1-1.1-0.4-1.3c-0.1-0.1-0.2-0.1-0.4-0.2c-0.1,0-0.2-0.1-0.4-0.1V27h1.9h1.3h2.7v0.4c-0.7,0-1,0.1-1,0.2
		c0,0.1,0.1,0.3,0.3,0.7c0.1,0.1,0.2,0.4,0.5,0.8c0.2,0.2,0.4,0.6,0.8,1.1c0.2-0.4,0.7-1,1.2-1.8c0.2-0.4,0.4-0.6,0.4-0.7
		c0-0.1,0-0.2-0.1-0.2c-0.1,0-0.2-0.1-0.5-0.1V27h2.2h0.5h2.2l3.9,4.4V29c0-0.7-0.1-1.1-0.4-1.3c-0.1-0.1-0.2-0.1-0.4-0.2
		c-0.1,0-0.2-0.1-0.4-0.1V27h3.1v0.4c-0.3,0-0.5,0.1-0.7,0.2c-0.2,0.2-0.4,0.6-0.4,1.3v4.3c0.3,0,0.5-0.1,0.6-0.1
		c0.3-0.1,0.5-0.4,0.6-0.7l0.5-1c-0.2-0.2-0.4-0.4-0.6-0.6c0.1,0,0.3-0.1,0.6-0.3c0.3-0.2,0.5-0.3,0.6-0.3l0.2-0.3l1.3-2.9H65.6z
		 M35.6,27v1.6l-0.9,2.2h0.9v0.8h-1.3c0,0.1-0.1,0.2-0.2,0.3c-0.1,0.2-0.2,0.5-0.3,0.8c0,0.1,0,0.1,0,0.2c0,0.1,0.1,0.2,0.3,0.3
		c0,0,0,0,0.1,0.1c0,0,0.1,0,0.3,0.1v0.4h-2.3v-0.5l0,0c0.3-0.1,0.5-0.4,0.6-0.7l0.5-1c-0.2-0.2-0.4-0.4-0.6-0.6
		c0.1,0,0.3-0.1,0.6-0.3c0.3-0.2,0.5-0.3,0.6-0.3l0.2-0.3l1.3-2.9H35.6L35.6,27z M32.2,30.2c0.5-0.3,0.7-0.8,0.7-1.5
		c0-0.6-0.2-1-0.7-1.2V30.2z M32.2,27.4v2.7c-0.3,0.2-0.8,0.4-1.3,0.5c-0.3,0.1-0.6,0.1-1,0.1v-0.6c0.2,0,0.4-0.1,0.5-0.2
		c0.3-0.2,0.4-0.6,0.4-1.1c0-0.5-0.1-0.9-0.4-1c-0.1-0.1-0.3-0.1-0.6-0.2V27h0.2C31,27,31.7,27.2,32.2,27.4L32.2,27.4z M32.2,33.1
		v0.5h-0.7v-0.4C31.8,33.2,32,33.2,32.2,33.1z M30,27v0.7c-0.2,0-0.3,0-0.6,0H29v2.6h0.2c0.3,0,0.6,0,0.8-0.1v0.6
		c-0.1,0-0.3,0-0.4,0H29v4.9h-0.4c-0.1-0.3-0.3-0.5-0.5-0.8c-0.3-0.3-0.6-0.5-0.9-0.5v-3.5c-0.2-0.2-0.4-0.4-0.6-0.6
		c0,0,0.3-0.2,0.6-0.6V28c0-0.2-0.1-0.3-0.2-0.4c-0.1-0.1-0.3-0.1-0.5-0.1l-0.2,0c-0.4,0-0.6,0.1-0.6,0.3c0,0.1-0.1,0.2-0.1,0.3v7.7
		h-0.4c0-0.1-0.1-0.3-0.1-0.4c-0.1-0.2-0.2-0.3-0.3-0.4c-0.3-0.3-0.5-0.5-0.7-0.5v-6.5l-2.2,5.7h-1c0-0.1-0.1-0.3-0.2-0.6l-0.3-0.7
		l-1.7-4.4v3.9c0,0.7,0.1,1.1,0.4,1.3c0.1,0.1,0.2,0.1,0.5,0.2c0.1,0,0.2,0.1,0.4,0.1v0.4h-3.2v-0.4l0.1,0c0.4-0.1,0.7-0.3,0.7-0.6
		c0-0.2,0.1-0.5,0.1-0.9v-3.2c0-0.4-0.1-0.7-0.3-0.8c-0.1-0.1-0.3-0.2-0.4-0.2c0,0-0.1,0-0.1,0V27h3.1l1.8,4.3l1.7-4.3h2.8h0.5H30
		L30,27z M16.7,30.4c0.1-0.1,0.2-0.2,0.3-0.2c-0.1-0.1-0.2-0.1-0.3-0.2V30.4z M16.7,27v0.4c-0.1,0-0.1,0-0.2,0V27H16.7L16.7,27z
		 M16.7,30c-0.1-0.1-0.3-0.2-0.4-0.3c-0.1-0.6-0.4-1.2-0.8-1.6c-0.4-0.4-0.9-0.8-1.6-1c-0.5-0.2-1-0.2-1.5-0.2h0v0.5h0
		c0.3,0,0.6,0.1,0.8,0.3c0.5,0.3,0.8,0.9,0.9,1.6c0.1,0.4,0.1,0.7,0.1,1.1c0,0.4,0,0.8-0.1,1.2c-0.1,0.8-0.5,1.3-0.9,1.6
		c-0.2,0.2-0.5,0.2-0.8,0.2l0,0v0.5h0c0.6,0,1.1-0.1,1.6-0.3c0.5-0.2,0.9-0.4,1.2-0.8c0.5-0.5,0.9-1.1,1-1.9
		c0.2-0.2,0.3-0.3,0.4-0.4V30L16.7,30z M16.7,33.2v0.4h-0.3v-0.4C16.5,33.2,16.6,33.2,16.7,33.2L16.7,33.2z M12.5,31.4v-2.3l0,0
		l1.2,1.2L12.5,31.4L12.5,31.4z M8.3,31.9c-0.1,0.1-0.1,0.2-0.2,0.4v-0.5L8.3,31.9L8.3,31.9z M12.5,26.8c-0.6,0-1.1,0.1-1.6,0.2
		c-1,0.3-1.7,0.9-2.1,1.8c-0.2,0.3-0.3,0.6-0.3,0.8c-0.2,0.2-0.3,0.3-0.4,0.4v0.3c0.2,0.1,0.3,0.3,0.4,0.4c0.1,0.5,0.2,0.8,0.3,0.9
		c0.4,0.8,1.1,1.4,2.1,1.7c0.5,0.2,1,0.2,1.6,0.2v-0.5c-0.4,0-0.7-0.1-0.9-0.2c-0.2-0.2-0.4-0.4-0.6-0.6c-0.3-0.5-0.4-1.2-0.4-2.1
		c0-1,0.2-1.7,0.5-2.2c0.3-0.5,0.8-0.8,1.5-0.8V26.8L12.5,26.8z M12.5,29.1v2.3l-1.2-1.1L12.5,29.1z M8.1,32.3
		c-0.5,0.7-1.1,1.1-1.8,1.3c-0.3,0.1-0.7,0.1-1.2,0.1c-1.1,0-2-0.3-2.7-0.9c-0.6-0.5-0.9-1.1-1.1-1.9c-0.2-0.2-0.4-0.4-0.6-0.6
		c0.1,0,0.3-0.2,0.7-0.6c0.1-0.7,0.5-1.3,1.1-1.8c0.7-0.7,1.7-1,2.8-1c0.7,0,1.3,0.1,1.9,0.4L7.5,27h0.4L8,29.4H7.5
		c-0.5-1.4-1.2-2.1-2.2-2.1c-1.2,0-1.8,0.8-1.9,2.4c0.1,0.1,0.2,0.2,0.3,0.3c0.2,0.2,0.3,0.3,0.3,0.3c-0.1,0-0.3,0.2-0.6,0.6
		c0,0.2,0.1,0.4,0.1,0.6c0.1,0.3,0.2,0.5,0.5,0.8C4.3,32.8,4.9,33,5.6,33c0.5,0,0.9-0.1,1.3-0.3c0.4-0.3,0.8-0.6,1-1l0.2,0.1V32.3
		L8.1,32.3z M8.1,30.1c-0.1,0.1-0.2,0.2-0.2,0.2C8,30.3,8,30.4,8.1,30.5V30.1z"/>
</g>
</svg>
